<svg width="1024" height="1024" viewBox="0 0 1024 1024" fill="none" xmlns="http://www.w3.org/2000/svg">
<g clip-path="url(#clip0_579_1214)">
<rect width="1024" height="1024" rx="512" fill="#141313"/>
<path d="M307.14 194.426C333.177 194.426 346.762 215.124 346.762 253.564V604.253H505.247C577.132 604.253 620.15 551.028 620.15 497.213C620.15 450.494 586.754 403.183 509.21 393.721C559.019 381.302 584.49 338.723 584.49 295.552C584.49 242.919 546.567 190.286 469.022 190.286H307.14V194.426ZM392.043 595.382V400.226H459.966C508.921 400.226 542.844 419.597 560.067 448.412C568.732 462.907 584.874 460.706 584.874 478.717C595.209 478.126 618.484 535.66 604.228 552.418C565.98 597.379 501.847 595.382 459.966 595.382H392.043ZM392.043 391.355V199.157H423.741C517.134 199.157 536.945 251.79 536.945 296.734C536.945 341.679 517.134 391.355 423.741 391.355H392.043Z" fill="white"/>
<path d="M469.129 719.881L568.795 458.296V458.924C568.795 468.333 569.396 480.879 569.396 495.307C569.396 570.583 563.392 697.925 515.36 771.32C506.354 785.12 496.747 791.393 488.342 791.393C472.131 791.393 463.125 773.202 463.125 751.246C463.125 741.209 465.527 729.918 469.129 719.881ZM416.894 830.286H426.501C559.189 830.286 574.199 635.195 574.199 519.772C574.199 500.953 573.599 484.016 573.599 470.842L711.09 830.286H762.725L594.613 391.175H502.751V395.566C531.571 395.566 550.183 410.621 563.392 444.496L563.992 445.75L416.894 830.286Z" fill="white"/>
</g>
<defs>
<clipPath id="clip0_579_1214">
<rect width="1024" height="1024" fill="white"/>
</clipPath>
</defs>
</svg>
