<?xml version="1.0" standalone="no"?>
<!DOCTYPE svg PUBLIC "-//W3C//DTD SVG 20010904//EN"
 "http://www.w3.org/TR/2001/REC-SVG-20010904/DTD/svg10.dtd">
<svg version="1.0" xmlns="http://www.w3.org/2000/svg"
 width="873.000000pt" height="873.000000pt" viewBox="0 0 873.000000 873.000000"
 preserveAspectRatio="xMidYMid meet">
<metadata>
Created by potrace 1.11, written by Peter Selinger 2001-2013
</metadata>
<g transform="translate(0.000000,873.000000) scale(0.100000,-0.100000)"
fill="#000000" stroke="none">
<path d="M4118 8725 c-2 -1 -45 -5 -95 -9 -51 -3 -126 -11 -165 -16 -40 -5
-89 -12 -108 -14 -128 -17 -271 -44 -400 -76 -47 -11 -94 -23 -104 -25 -11 -3
-60 -16 -110 -31 -548 -161 -1053 -424 -1501 -782 -267 -214 -561 -517 -761
-787 -32 -44 -61 -82 -64 -85 -17 -15 -169 -254 -235 -370 -65 -112 -215 -409
-215 -425 0 -2 -11 -28 -24 -57 -75 -166 -197 -554 -242 -773 -8 -39 -27 -140
-29 -155 -3 -25 -17 -114 -21 -134 -2 -10 -6 -44 -9 -75 -4 -31 -8 -67 -11
-81 -19 -120 -26 -617 -11 -795 14 -164 31 -299 58 -450 17 -96 19 -104 35
-174 9 -36 18 -76 20 -89 3 -13 24 -92 49 -175 82 -282 182 -532 318 -796 33
-63 77 -143 98 -178 21 -35 39 -65 39 -68 0 -13 228 -343 284 -412 8 -10 37
-45 63 -78 26 -33 53 -65 58 -71 190 -212 412 -431 521 -516 16 -13 38 -31 49
-41 37 -35 259 -199 356 -262 252 -167 602 -347 848 -436 377 -137 706 -218
1034 -254 32 -4 67 -8 77 -10 123 -24 710 -23 885 1 17 2 50 6 75 9 76 8 121
15 235 35 161 29 168 30 187 36 9 3 25 6 35 8 32 7 156 37 188 47 17 5 68 20
115 34 391 117 802 312 1155 548 58 39 285 205 295 217 3 3 30 25 60 50 209
170 493 466 681 710 59 76 211 296 249 360 8 14 36 61 62 105 128 213 300 603
382 865 70 227 128 478 152 655 3 28 8 58 10 69 2 10 6 44 9 75 3 31 8 70 10
86 25 186 25 636 0 855 -2 19 -6 59 -9 88 -11 100 -49 329 -61 372 -2 8 -7 31
-10 50 -7 38 -50 216 -65 265 -174 569 -385 991 -716 1430 -177 237 -429 504
-654 695 -14 12 -34 29 -45 38 -11 10 -67 54 -125 98 -476 367 -986 614 -1590
772 -73 20 -168 40 -260 57 -133 24 -212 35 -305 45 -60 6 -123 14 -140 16
-33 5 -601 14 -607 9z m542 -1618 c14 -3 48 -8 75 -11 412 -49 864 -228 1225
-484 164 -117 443 -376 525 -487 17 -22 33 -42 36 -45 22 -18 161 -222 226
-330 25 -42 143 -276 143 -284 0 -4 9 -25 20 -49 64 -138 149 -446 179 -652
32 -215 34 -545 6 -755 -56 -425 -212 -833 -459 -1200 -68 -102 -226 -290
-330 -394 -186 -186 -357 -316 -576 -440 -47 -26 -92 -52 -100 -57 -19 -12
-49 -25 -205 -94 -191 -84 -512 -169 -720 -191 -33 -3 -91 -10 -130 -14 -76
-7 -421 -6 -470 3 -16 3 -57 8 -90 12 -70 8 -119 15 -149 21 -11 3 -34 8 -51
10 -67 12 -256 65 -353 98 -256 88 -508 221 -732 385 -41 30 -80 60 -86 66 -6
5 -31 26 -55 45 -75 60 -238 221 -312 310 -40 47 -75 87 -78 90 -18 16 -149
208 -206 303 -128 213 -268 557 -309 760 -2 10 -5 26 -8 35 -3 9 -7 28 -10 42
-2 14 -9 54 -16 90 -18 105 -19 111 -27 190 -10 97 -10 486 0 570 10 89 17
141 21 165 2 11 7 38 11 60 44 249 160 575 289 810 167 304 423 614 671 810
28 22 52 42 55 45 7 7 133 98 190 136 299 202 768 377 1125 420 33 4 85 10
115 14 61 8 521 6 560 -3z"/>
<path d="M4347 5594 c-1 -1 -40 -4 -87 -8 -94 -7 -98 -7 -190 -31 -231 -59
-421 -170 -587 -341 -160 -167 -284 -398 -318 -593 -3 -19 -7 -37 -9 -40 -16
-26 -23 -278 -11 -366 54 -407 304 -764 662 -948 95 -48 218 -93 298 -108 28
-5 61 -12 75 -15 14 -3 88 -7 165 -9 127 -2 162 1 312 29 59 11 208 68 283
108 217 115 403 302 518 519 42 79 96 221 106 280 4 19 12 65 20 103 13 67 15
320 2 376 -3 14 -10 45 -15 70 -24 114 -53 196 -109 304 -173 336 -508 585
-873 650 -74 13 -234 26 -242 20z"/>
</g>
</svg>
